<mxfile modified="2020-02-15T12:41:01.143Z" host="www.draw.io" agent="Mozilla/5.0 (Macintosh; Intel Mac OS X 10_15_2) AppleWebKit/537.36 (KHTML, like Gecko) Chrome/80.0.3987.100 Safari/537.36" etag="MN1s8qsEwOMl8yHe68-v" version="12.7.0" type="github" pages="2">
  <diagram id="Ht1M8jgEwFfnCIfOTk4-" name="Page-1">
    <mxGraphModel dx="1351" dy="1750" grid="1" gridSize="10" guides="1" tooltips="1" connect="1" arrows="1" fold="1" page="1" pageScale="1" pageWidth="1169" pageHeight="827" math="0" shadow="0">
      <root>
        <mxCell id="0"/>
        <mxCell id="1" parent="0"/>
        <mxCell id="UEzPUAAOIrF-is8g5C7q-74" value="&lt;font style=&quot;font-size: 15px&quot;&gt;AWS Cloud&lt;/font&gt;" style="points=[[0,0],[0.25,0],[0.5,0],[0.75,0],[1,0],[1,0.25],[1,0.5],[1,0.75],[1,1],[0.75,1],[0.5,1],[0.25,1],[0,1],[0,0.75],[0,0.5],[0,0.25]];outlineConnect=0;gradientColor=none;html=1;whiteSpace=wrap;fontSize=12;fontStyle=0;shape=mxgraph.aws4.group;grIcon=mxgraph.aws4.group_aws_cloud_alt;strokeColor=#232F3E;fillColor=none;verticalAlign=top;align=left;spacingLeft=30;fontColor=#232F3E;dashed=0;labelBackgroundColor=#ffffff;" parent="1" vertex="1">
          <mxGeometry x="10" y="100" width="1140" height="718" as="geometry"/>
        </mxCell>
        <mxCell id="UEzPUAAOIrF-is8g5C7q-88" value="" style="edgeStyle=orthogonalEdgeStyle;rounded=0;orthogonalLoop=1;jettySize=auto;html=1;endArrow=open;endFill=0;strokeWidth=2;" parent="1" edge="1">
          <mxGeometry relative="1" as="geometry">
            <mxPoint x="38" y="-50.00142857142845" as="sourcePoint"/>
            <mxPoint x="79.99999999999977" y="-50.00142857142845" as="targetPoint"/>
          </mxGeometry>
        </mxCell>
        <mxCell id="TSYXAIwE5Utrez5BGwK_-2" value="&lt;font style=&quot;font-size: 15px&quot;&gt;Region(ap-northeast-1)&lt;/font&gt;" style="points=[[0,0],[0.25,0],[0.5,0],[0.75,0],[1,0],[1,0.25],[1,0.5],[1,0.75],[1,1],[0.75,1],[0.5,1],[0.25,1],[0,1],[0,0.75],[0,0.5],[0,0.25]];outlineConnect=0;gradientColor=none;html=1;whiteSpace=wrap;fontSize=12;fontStyle=0;shape=mxgraph.aws4.group;grIcon=mxgraph.aws4.group_region;strokeColor=#147EBA;fillColor=none;verticalAlign=top;align=left;spacingLeft=30;fontColor=#147EBA;dashed=0;" parent="1" vertex="1">
          <mxGeometry x="40" y="130" width="1080" height="669" as="geometry"/>
        </mxCell>
        <mxCell id="TSYXAIwE5Utrez5BGwK_-3" value="" style="outlineConnect=0;fontColor=#232F3E;gradientColor=#60A337;gradientDirection=north;fillColor=#277116;strokeColor=#ffffff;dashed=0;verticalLabelPosition=bottom;verticalAlign=top;align=center;html=1;fontSize=12;fontStyle=0;aspect=fixed;shape=mxgraph.aws4.resourceIcon;resIcon=mxgraph.aws4.s3;" parent="1" vertex="1">
          <mxGeometry x="50" y="710" width="78" height="78" as="geometry"/>
        </mxCell>
        <mxCell id="TSYXAIwE5Utrez5BGwK_-4" value="&lt;font style=&quot;font-size: 20px&quot;&gt;S3&lt;/font&gt;" style="text;html=1;strokeColor=none;fillColor=none;align=center;verticalAlign=middle;whiteSpace=wrap;rounded=0;" parent="1" vertex="1">
          <mxGeometry x="69" y="688" width="40" height="20" as="geometry"/>
        </mxCell>
        <mxCell id="TSYXAIwE5Utrez5BGwK_-6" value="&lt;font style=&quot;font-size: 15px&quot;&gt;VPC(10.0.0.0/16)&lt;/font&gt;" style="points=[[0,0],[0.25,0],[0.5,0],[0.75,0],[1,0],[1,0.25],[1,0.5],[1,0.75],[1,1],[0.75,1],[0.5,1],[0.25,1],[0,1],[0,0.75],[0,0.5],[0,0.25]];outlineConnect=0;gradientColor=none;html=1;whiteSpace=wrap;fontSize=12;fontStyle=0;shape=mxgraph.aws4.group;grIcon=mxgraph.aws4.group_vpc;strokeColor=#248814;fillColor=none;verticalAlign=top;align=left;spacingLeft=30;fontColor=#AAB7B8;dashed=0;" parent="1" vertex="1">
          <mxGeometry x="197" y="158" width="893" height="622" as="geometry"/>
        </mxCell>
        <mxCell id="TSYXAIwE5Utrez5BGwK_-7" value="&lt;font style=&quot;font-size: 15px&quot;&gt;Availability zone(1a)&lt;/font&gt;" style="outlineConnect=0;gradientColor=none;html=1;whiteSpace=wrap;fontSize=12;fontStyle=0;shape=mxgraph.aws4.group;grIcon=mxgraph.aws4.group_availability_zone;strokeColor=#545B64;fillColor=none;verticalAlign=top;align=left;spacingLeft=30;fontColor=#545B64;dashed=1;" parent="1" vertex="1">
          <mxGeometry x="227" y="190" width="350" height="570" as="geometry"/>
        </mxCell>
        <mxCell id="TSYXAIwE5Utrez5BGwK_-8" value="&lt;font style=&quot;font-size: 15px&quot;&gt;Availability zone(1c)&lt;/font&gt;" style="outlineConnect=0;gradientColor=none;html=1;whiteSpace=wrap;fontSize=12;fontStyle=0;shape=mxgraph.aws4.group;grIcon=mxgraph.aws4.group_availability_zone;strokeColor=#545B64;fillColor=none;verticalAlign=top;align=left;spacingLeft=30;fontColor=#545B64;dashed=1;" parent="1" vertex="1">
          <mxGeometry x="707" y="190" width="353" height="570" as="geometry"/>
        </mxCell>
        <mxCell id="TSYXAIwE5Utrez5BGwK_-9" value="&lt;font style=&quot;font-size: 15px&quot;&gt;Public subnet(10.0.0.0/24)&lt;/font&gt;" style="points=[[0,0],[0.25,0],[0.5,0],[0.75,0],[1,0],[1,0.25],[1,0.5],[1,0.75],[1,1],[0.75,1],[0.5,1],[0.25,1],[0,1],[0,0.75],[0,0.5],[0,0.25]];outlineConnect=0;gradientColor=none;html=1;whiteSpace=wrap;fontSize=12;fontStyle=0;shape=mxgraph.aws4.group;grIcon=mxgraph.aws4.group_security_group;grStroke=0;strokeColor=#248814;fillColor=#E9F3E6;verticalAlign=top;align=left;spacingLeft=30;fontColor=#248814;dashed=0;" parent="1" vertex="1">
          <mxGeometry x="242" y="240" width="320" height="240" as="geometry"/>
        </mxCell>
        <mxCell id="TSYXAIwE5Utrez5BGwK_-10" value="&lt;font style=&quot;font-size: 15px&quot;&gt;Public subnet(10.0.3.0/24)&lt;/font&gt;" style="points=[[0,0],[0.25,0],[0.5,0],[0.75,0],[1,0],[1,0.25],[1,0.5],[1,0.75],[1,1],[0.75,1],[0.5,1],[0.25,1],[0,1],[0,0.75],[0,0.5],[0,0.25]];outlineConnect=0;gradientColor=none;html=1;whiteSpace=wrap;fontSize=12;fontStyle=0;shape=mxgraph.aws4.group;grIcon=mxgraph.aws4.group_security_group;grStroke=0;strokeColor=#248814;fillColor=#E9F3E6;verticalAlign=top;align=left;spacingLeft=30;fontColor=#248814;dashed=0;" parent="1" vertex="1">
          <mxGeometry x="727" y="240" width="320" height="240" as="geometry"/>
        </mxCell>
        <mxCell id="TSYXAIwE5Utrez5BGwK_-14" value="&lt;font style=&quot;font-size: 15px&quot;&gt;EC2&lt;/font&gt;" style="outlineConnect=0;fontColor=#232F3E;gradientColor=none;strokeColor=#ffffff;fillColor=#232F3E;dashed=0;verticalLabelPosition=middle;verticalAlign=bottom;align=center;html=1;whiteSpace=wrap;fontSize=10;fontStyle=1;spacing=3;shape=mxgraph.aws4.productIcon;prIcon=mxgraph.aws4.ec2;" parent="1" vertex="1">
          <mxGeometry x="362" y="330" width="80" height="100" as="geometry"/>
        </mxCell>
        <mxCell id="TSYXAIwE5Utrez5BGwK_-15" value="" style="rounded=1;arcSize=10;dashed=1;strokeColor=#ff0000;fillColor=none;gradientColor=none;dashPattern=8 4;strokeWidth=2;" parent="1" vertex="1">
          <mxGeometry x="257" y="270" width="760" height="200" as="geometry"/>
        </mxCell>
        <mxCell id="TSYXAIwE5Utrez5BGwK_-17" value="&lt;span style=&quot;font-size: 15px&quot;&gt;&lt;font color=&quot;#ff0000&quot;&gt;Security Group(SSH/HTTP)&lt;/font&gt;&lt;/span&gt;" style="text;html=1;strokeColor=none;fillColor=none;align=center;verticalAlign=middle;whiteSpace=wrap;rounded=0;" parent="1" vertex="1">
          <mxGeometry x="270" y="280" width="200" height="20" as="geometry"/>
        </mxCell>
        <mxCell id="TSYXAIwE5Utrez5BGwK_-18" value="&lt;font style=&quot;font-size: 15px&quot;&gt;EC2&lt;/font&gt;" style="outlineConnect=0;fontColor=#232F3E;gradientColor=none;strokeColor=#ffffff;fillColor=#232F3E;dashed=0;verticalLabelPosition=middle;verticalAlign=bottom;align=center;html=1;whiteSpace=wrap;fontSize=10;fontStyle=1;spacing=3;shape=mxgraph.aws4.productIcon;prIcon=mxgraph.aws4.ec2;" parent="1" vertex="1">
          <mxGeometry x="837" y="330" width="80" height="100" as="geometry"/>
        </mxCell>
        <mxCell id="TSYXAIwE5Utrez5BGwK_-19" value="&lt;font style=&quot;font-size: 15px&quot;&gt;Private subnet(10.0.1.0/24)&lt;/font&gt;" style="points=[[0,0],[0.25,0],[0.5,0],[0.75,0],[1,0],[1,0.25],[1,0.5],[1,0.75],[1,1],[0.75,1],[0.5,1],[0.25,1],[0,1],[0,0.75],[0,0.5],[0,0.25]];outlineConnect=0;gradientColor=none;html=1;whiteSpace=wrap;fontSize=12;fontStyle=0;shape=mxgraph.aws4.group;grIcon=mxgraph.aws4.group_security_group;grStroke=0;strokeColor=#147EBA;fillColor=#E6F2F8;verticalAlign=top;align=left;spacingLeft=30;fontColor=#147EBA;dashed=0;" parent="1" vertex="1">
          <mxGeometry x="242" y="500" width="320" height="240" as="geometry"/>
        </mxCell>
        <mxCell id="TSYXAIwE5Utrez5BGwK_-20" value="&lt;font style=&quot;font-size: 15px&quot;&gt;Private subnet(10.0.2.0/24)&lt;/font&gt;" style="points=[[0,0],[0.25,0],[0.5,0],[0.75,0],[1,0],[1,0.25],[1,0.5],[1,0.75],[1,1],[0.75,1],[0.5,1],[0.25,1],[0,1],[0,0.75],[0,0.5],[0,0.25]];outlineConnect=0;gradientColor=none;html=1;whiteSpace=wrap;fontSize=12;fontStyle=0;shape=mxgraph.aws4.group;grIcon=mxgraph.aws4.group_security_group;grStroke=0;strokeColor=#147EBA;fillColor=#E6F2F8;verticalAlign=top;align=left;spacingLeft=30;fontColor=#147EBA;dashed=0;" parent="1" vertex="1">
          <mxGeometry x="727" y="500" width="320" height="240" as="geometry"/>
        </mxCell>
        <mxCell id="TSYXAIwE5Utrez5BGwK_-21" value="" style="rounded=1;arcSize=10;dashed=1;strokeColor=#ff0000;fillColor=none;gradientColor=none;dashPattern=8 4;strokeWidth=2;" parent="1" vertex="1">
          <mxGeometry x="257" y="530" width="760" height="200" as="geometry"/>
        </mxCell>
        <mxCell id="TSYXAIwE5Utrez5BGwK_-22" value="&lt;span style=&quot;font-size: 15px&quot;&gt;&lt;font color=&quot;#ff0000&quot;&gt;Security Group(MYSQL/Aurora)&lt;/font&gt;&lt;/span&gt;" style="text;html=1;strokeColor=none;fillColor=none;align=center;verticalAlign=middle;whiteSpace=wrap;rounded=0;" parent="1" vertex="1">
          <mxGeometry x="270" y="540" width="230" height="20" as="geometry"/>
        </mxCell>
        <mxCell id="TSYXAIwE5Utrez5BGwK_-23" value="" style="outlineConnect=0;fontColor=#232F3E;gradientColor=#4D72F3;gradientDirection=north;fillColor=#3334B9;strokeColor=#ffffff;dashed=0;verticalLabelPosition=bottom;verticalAlign=top;align=center;html=1;fontSize=12;fontStyle=0;aspect=fixed;shape=mxgraph.aws4.resourceIcon;resIcon=mxgraph.aws4.rds;" parent="1" vertex="1">
          <mxGeometry x="357" y="600" width="78" height="78" as="geometry"/>
        </mxCell>
        <mxCell id="TSYXAIwE5Utrez5BGwK_-24" value="&lt;font style=&quot;font-size: 15px&quot;&gt;RDS(MySQL)&lt;br&gt;マスター&lt;/font&gt;" style="text;html=1;strokeColor=none;fillColor=none;align=center;verticalAlign=middle;whiteSpace=wrap;rounded=0;" parent="1" vertex="1">
          <mxGeometry x="351" y="678" width="90" height="40" as="geometry"/>
        </mxCell>
        <mxCell id="TSYXAIwE5Utrez5BGwK_-25" value="" style="outlineConnect=0;fontColor=#232F3E;gradientColor=#4D72F3;gradientDirection=north;fillColor=#3334B9;strokeColor=#ffffff;dashed=0;verticalLabelPosition=bottom;verticalAlign=top;align=center;html=1;fontSize=12;fontStyle=0;aspect=fixed;shape=mxgraph.aws4.resourceIcon;resIcon=mxgraph.aws4.rds;" parent="1" vertex="1">
          <mxGeometry x="837" y="600" width="78" height="78" as="geometry"/>
        </mxCell>
        <mxCell id="TSYXAIwE5Utrez5BGwK_-27" value="&lt;font style=&quot;font-size: 15px&quot;&gt;RDS(MySQL)&lt;br&gt;スタンバイ&lt;br&gt;&lt;/font&gt;" style="text;html=1;strokeColor=none;fillColor=none;align=center;verticalAlign=middle;whiteSpace=wrap;rounded=0;" parent="1" vertex="1">
          <mxGeometry x="832" y="678" width="90" height="40" as="geometry"/>
        </mxCell>
        <mxCell id="TSYXAIwE5Utrez5BGwK_-33" value="" style="endArrow=classic;html=1;" parent="1" source="TSYXAIwE5Utrez5BGwK_-39" edge="1">
          <mxGeometry width="50" height="50" relative="1" as="geometry">
            <mxPoint x="633" y="258" as="sourcePoint"/>
            <mxPoint x="450" y="340" as="targetPoint"/>
            <Array as="points"/>
          </mxGeometry>
        </mxCell>
        <mxCell id="TSYXAIwE5Utrez5BGwK_-34" value="" style="endArrow=classic;html=1;" parent="1" source="TSYXAIwE5Utrez5BGwK_-39" edge="1">
          <mxGeometry width="50" height="50" relative="1" as="geometry">
            <mxPoint x="643" y="258" as="sourcePoint"/>
            <mxPoint x="830" y="340" as="targetPoint"/>
            <Array as="points"/>
          </mxGeometry>
        </mxCell>
        <mxCell id="TSYXAIwE5Utrez5BGwK_-35" value="&lt;font style=&quot;font-size: 15px&quot;&gt;Internet&lt;/font&gt;" style="outlineConnect=0;fontColor=#232F3E;gradientColor=none;strokeColor=#232F3E;fillColor=#ffffff;dashed=0;verticalLabelPosition=bottom;verticalAlign=top;align=center;html=1;fontSize=12;fontStyle=0;aspect=fixed;shape=mxgraph.aws4.resourceIcon;resIcon=mxgraph.aws4.internet;" parent="1" vertex="1">
          <mxGeometry x="608" width="60" height="60" as="geometry"/>
        </mxCell>
        <mxCell id="TSYXAIwE5Utrez5BGwK_-37" value="" style="outlineConnect=0;fontColor=#232F3E;gradientColor=none;fillColor=#5A30B5;strokeColor=none;dashed=0;verticalLabelPosition=bottom;verticalAlign=top;align=center;html=1;fontSize=12;fontStyle=0;aspect=fixed;pointerEvents=1;shape=mxgraph.aws4.internet_gateway;" parent="1" vertex="1">
          <mxGeometry x="600" y="100" width="78" height="78" as="geometry"/>
        </mxCell>
        <mxCell id="TSYXAIwE5Utrez5BGwK_-39" value="Application Load Balancer" style="outlineConnect=0;fontColor=#232F3E;gradientColor=none;strokeColor=#ffffff;fillColor=#232F3E;dashed=0;verticalLabelPosition=middle;verticalAlign=bottom;align=center;html=1;whiteSpace=wrap;fontSize=10;fontStyle=1;spacing=3;shape=mxgraph.aws4.productIcon;prIcon=mxgraph.aws4.application_load_balancer;" parent="1" vertex="1">
          <mxGeometry x="598" y="190" width="80" height="110" as="geometry"/>
        </mxCell>
        <mxCell id="TSYXAIwE5Utrez5BGwK_-40" value="" style="endArrow=classic;html=1;" parent="1" source="TSYXAIwE5Utrez5BGwK_-3" target="TSYXAIwE5Utrez5BGwK_-44" edge="1">
          <mxGeometry width="50" height="50" relative="1" as="geometry">
            <mxPoint x="960" y="910" as="sourcePoint"/>
            <mxPoint x="440" y="860" as="targetPoint"/>
          </mxGeometry>
        </mxCell>
        <mxCell id="TSYXAIwE5Utrez5BGwK_-44" value="" style="outlineConnect=0;fontColor=#232F3E;gradientColor=none;fillColor=#5A30B5;strokeColor=none;dashed=0;verticalLabelPosition=bottom;verticalAlign=top;align=center;html=1;fontSize=12;fontStyle=0;aspect=fixed;pointerEvents=1;shape=mxgraph.aws4.endpoints;" parent="1" vertex="1">
          <mxGeometry x="160" y="620" width="78" height="78" as="geometry"/>
        </mxCell>
        <mxCell id="TSYXAIwE5Utrez5BGwK_-45" value="&lt;font style=&quot;font-size: 20px&quot;&gt;Endpoints&lt;/font&gt;" style="text;html=1;strokeColor=none;fillColor=none;align=center;verticalAlign=middle;whiteSpace=wrap;rounded=0;" parent="1" vertex="1">
          <mxGeometry x="152" y="600" width="90" height="20" as="geometry"/>
        </mxCell>
        <mxCell id="TSYXAIwE5Utrez5BGwK_-49" value="" style="endArrow=classic;startArrow=classic;html=1;" parent="1" edge="1">
          <mxGeometry width="50" height="50" relative="1" as="geometry">
            <mxPoint x="241" y="658" as="sourcePoint"/>
            <mxPoint x="351" y="658" as="targetPoint"/>
            <Array as="points"/>
          </mxGeometry>
        </mxCell>
      </root>
    </mxGraphModel>
  </diagram>
  <diagram name="VPC" id="9ejwIUlZD0jbP0mSZtzJ">
    <mxGraphModel dx="1577" dy="1904" grid="1" gridSize="10" guides="1" tooltips="1" connect="1" arrows="1" fold="1" page="1" pageScale="1" pageWidth="1169" pageHeight="827" math="0" shadow="0">
      <root>
        <mxCell id="2WQ_U6o3FBiUJfnBfj-o-0"/>
        <mxCell id="2WQ_U6o3FBiUJfnBfj-o-1" parent="2WQ_U6o3FBiUJfnBfj-o-0"/>
        <mxCell id="2WQ_U6o3FBiUJfnBfj-o-2" value="&lt;font style=&quot;font-size: 15px&quot;&gt;AWS Cloud&lt;/font&gt;" style="points=[[0,0],[0.25,0],[0.5,0],[0.75,0],[1,0],[1,0.25],[1,0.5],[1,0.75],[1,1],[0.75,1],[0.5,1],[0.25,1],[0,1],[0,0.75],[0,0.5],[0,0.25]];outlineConnect=0;gradientColor=none;html=1;whiteSpace=wrap;fontSize=12;fontStyle=0;shape=mxgraph.aws4.group;grIcon=mxgraph.aws4.group_aws_cloud_alt;strokeColor=#232F3E;fillColor=none;verticalAlign=top;align=left;spacingLeft=30;fontColor=#232F3E;dashed=0;labelBackgroundColor=#ffffff;" vertex="1" parent="2WQ_U6o3FBiUJfnBfj-o-1">
          <mxGeometry x="10" y="100" width="1140" height="718" as="geometry"/>
        </mxCell>
        <mxCell id="2WQ_U6o3FBiUJfnBfj-o-3" value="" style="edgeStyle=orthogonalEdgeStyle;rounded=0;orthogonalLoop=1;jettySize=auto;html=1;endArrow=open;endFill=0;strokeWidth=2;" edge="1" parent="2WQ_U6o3FBiUJfnBfj-o-1">
          <mxGeometry relative="1" as="geometry">
            <mxPoint x="38" y="-50.00142857142845" as="sourcePoint"/>
            <mxPoint x="79.99999999999977" y="-50.00142857142845" as="targetPoint"/>
          </mxGeometry>
        </mxCell>
        <mxCell id="2WQ_U6o3FBiUJfnBfj-o-7" value="&lt;font style=&quot;font-size: 15px&quot;&gt;VPC(10.0.0.0/16)&lt;/font&gt;" style="points=[[0,0],[0.25,0],[0.5,0],[0.75,0],[1,0],[1,0.25],[1,0.5],[1,0.75],[1,1],[0.75,1],[0.5,1],[0.25,1],[0,1],[0,0.75],[0,0.5],[0,0.25]];outlineConnect=0;gradientColor=none;html=1;whiteSpace=wrap;fontSize=12;fontStyle=0;shape=mxgraph.aws4.group;grIcon=mxgraph.aws4.group_vpc;strokeColor=#248814;fillColor=none;verticalAlign=top;align=left;spacingLeft=30;fontColor=#AAB7B8;dashed=0;" vertex="1" parent="2WQ_U6o3FBiUJfnBfj-o-1">
          <mxGeometry x="197" y="158" width="893" height="622" as="geometry"/>
        </mxCell>
        <mxCell id="2WQ_U6o3FBiUJfnBfj-o-26" value="&lt;font style=&quot;font-size: 15px&quot;&gt;Internet&lt;/font&gt;" style="outlineConnect=0;fontColor=#232F3E;gradientColor=none;strokeColor=#232F3E;fillColor=#ffffff;dashed=0;verticalLabelPosition=bottom;verticalAlign=top;align=center;html=1;fontSize=12;fontStyle=0;aspect=fixed;shape=mxgraph.aws4.resourceIcon;resIcon=mxgraph.aws4.internet;" vertex="1" parent="2WQ_U6o3FBiUJfnBfj-o-1">
          <mxGeometry x="608" width="60" height="60" as="geometry"/>
        </mxCell>
      </root>
    </mxGraphModel>
  </diagram>
</mxfile>
